<?xml version="1.0" encoding="utf-8"?>
<!-- Generator: Adobe Illustrator 25.0.1, SVG Export Plug-In . SVG Version: 6.00 Build 0)  -->
<svg version="1.0" id="Layer_1" xmlns="http://www.w3.org/2000/svg" xmlns:xlink="http://www.w3.org/1999/xlink" x="0px" y="0px"
	 viewBox="0 0 232 161" style="enable-background:new 0 0 232 161;" xml:space="preserve">
<style type="text/css">
	.st0{fill:#00B5AE;}
	.st1{fill:none;}
</style>
<path id="path13" class="st0" d="M79,80.5c0-1.7-1.3-3-3-3c0,0-0.1,0-0.1,0c-1.7-0.1-3.1,1.3-3.2,3c0,0,0,0,0,0l0,0v0.2
	c0,2.5-0.5,5.1-1.5,7.4c-1.9,4.5-5.6,8.2-10.1,10.1c-2.3,1-4.8,1.5-7.4,1.5c-0.4,0-0.8,0-1.2,0s-0.8-0.1-1.2-0.1
	c-2.3-0.3-4.5-1-6.5-2.1c-2-1.1-3.8-2.5-5.3-4.2c-1.5-1.7-2.7-3.6-3.5-5.7c-0.9-2.2-1.3-4.5-1.3-6.8c0-2.5,0.5-5,1.5-7.3
	c1-2.2,2.4-4.3,4.1-6c1.7-1.7,3.8-3.1,6-4.1c2.3-1,4.8-1.5,7.3-1.5c2.5,0,5,0.5,7.3,1.4c2,0.8,3.8,2,5.3,3.4L54.7,78.4l0,0l0,0l0,0
	c-1,1.4-0.6,3.2,0.7,4.2c0,0,0.1,0.1,0.1,0.1c1.3,1,3.3,0.8,4.3-0.6c0,0,0,0,0,0l0,0l14.3-14.3c0.7-0.7,0.7-1.8,0-2.5l-2.5-2.5
	c-2.3-2.3-5.1-4.2-8.1-5.5c-3.1-1.3-6.4-2-9.7-2c-3.3,0-6.6,0.7-9.7,2c-3,1.3-5.8,3.2-8.2,5.5c-2.3,2.4-4.1,5.1-5.4,8.2
	c-1.3,3.1-1.9,6.4-1.9,9.7c0,3.1,0.6,6.1,1.7,9c1.1,2.8,2.7,5.5,4.7,7.8c2,2.3,4.4,4.1,7,5.6c2.7,1.5,5.7,2.4,8.8,2.8
	c0.5,0.1,1,0.1,1.5,0.2s1,0,1.6,0c3.3,0,6.7-0.6,9.7-1.9c3.1-1.3,5.8-3.1,8.1-5.5c2.4-2.3,4.2-5.1,5.5-8.2c1.3-3.1,1.9-6.4,1.9-9.7
	V80.5z"/>
<path id="path11" class="st0" d="M180.6,104.2l-17.4-43.4c-0.3-0.6-0.4-1.2-0.4-1.8c0.1-1.8,1.6-3.1,3.4-3c1.3,0,2.4,0.8,2.8,2
	l14.5,38.7l14.4-38.9c0.3-1.1,1.4-2,2.6-2c1.7-0.1,3.1,1.2,3.2,2.8c0,0,0,0.1,0,0.1c-0.1,0.6-0.2,1.2-0.5,1.8l-18.6,48.8
	c-3.9,9.8-7.3,13.9-16.3,14c-2.8,0-3.9-0.9-3.9-2.8s0.9-3,3.2-3c7.5-0.1,9.5-3.8,11.5-8.9L180.6,104.2z"/>
<path id="path9" class="st0" d="M135.4,58.4c0.2-13.2,7.1-21,18-20.7c1.6,0,3.3,0.2,4.9,0.5c1.4,0.2,2.4,1.4,2.5,2.8
	c0.2,1.4-0.9,2.7-2.3,2.8c-0.2,0-0.3,0-0.5,0c-1.3,0-2.4-0.3-4.4-0.3c-8.2,0-11.4,4.8-11.8,13.8h10.7c1.6,0.1,2.9,1.5,2.8,3.1
	c-0.1,1.5-1.3,2.7-2.8,2.8h-10.8v37.9c-0.1,1.8-1.6,3.1-3.4,3c-1.6-0.1-2.9-1.4-3-3V58.4z"/>
<path id="path7" class="st0" d="M117.2,59c0.1-1.7,1.5-3.1,3.2-3c0,0,0,0,0,0c1.7-0.1,3.1,1.2,3.1,2.9c0,0,0,0.1,0,0.1v26.1
	c0,10.9-6.6,19-18.6,19s-18.5-8.1-18.5-19V59c0-1.7,1.3-3,3-3c0,0,0.1,0,0.1,0c1.7,0,3.1,1.3,3.1,3v26.3c0,7.6,4.4,13,12.3,13
	s12.3-5.4,12.3-13L117.2,59z"/>
<rect x="21" y="32" class="st1" width="150" height="80"/>
</svg>
