<svg xmlns="http://www.w3.org/2000/svg" height="80" width="150" viewBox="-8.010168 -2.472135 69.421456 14.83281"><g fill="#960014" fill-rule="evenodd"><path d="M16.94339 2.19929l-4.0394.03201-.18441 1.08956 1.44198-.01112-.94218 4.53576 1.14723-.009.94377-4.53575 1.39594-.01059zm3.23373.96626s-1.37424-.86995-2.1889 1.26365l.2331-1.29779-.97842.00794-.91493 4.68101 1.00012-.0074.56991-2.50164s.52176-1.61925 1.92352-.96785zm1.1827 3.97827c-.26988.00265-.46594-.16775-.4678-.4371-.00131-.26907.2884-.5408.58289-.69029.29157-.14817 1.24354-.47387 1.24354-.47387.0074 1.12475-1.08744 1.59809-1.35864 1.60126m1.26392-4.26693s-1.2737.10636-2.0246.82153l-.1381 1.1033s.80115-.86253 1.60866-.86968c.80486-.00582 1.32662.72523.03201 1.15041-1.29566.42651-2.3442.65379-2.33415 1.9521.01058 1.2954 1.99416 1.18269 2.64372-.04604l-.11536.78502.97684-.009.68368-3.35782s.40296-1.54385-1.3327-1.52982m5.11254-.01747c-1.37133.01138-1.96876 1.53273-1.96876 1.53273l.25796-1.32344-1.05304.009-.86598 4.7289 1.0512-.00927.58842-2.79241s.2876-1.007 1.19142-1.01362c.9054-.00661.64347.90011.5977 1.1946-.0463.29368-.54293 2.5736-.54293 2.5736l1.10014-.009.68183-3.52954s.33073-1.37319-1.03796-1.36155m3.49964-.00317c-1.00409.00714-1.95077.87048-1.94283 1.8505.00767.9779 1.10728 1.11654 1.27873 1.16548.17463.04551.54134.16484.54504.53234.00344.36672-.92075 1.27927-2.10661-.07937l-.16034 1.07844s.4162.50774 1.2483.50165c.83424-.00688 2.02936-.65405 2.01957-1.75445-.00847-1.1012-1.3552-1.1377-1.70048-1.42875-.34475-.29157.13812-.88186.72787-.88609.58553-.00503 1.10437.62627 1.10437.62627l.23601-1.05304s-.24897-.56198-1.24963-.55298m3.86107-.05636c-1.0258.00873-2.63049 1.09802-2.61408 3.1033.0156 2.00713 1.9521 2.74902 3.30967 1.10067l.09207-.8099s-.60483.8382-1.4859.84588c-.87974.00635-.96043-1.04378-.91546-1.38933.04657-.3421.35322-1.73857 1.5031-1.74836 1.14777-.00926 1.27688.77258 1.27688.77258l.23548-1.17554s-.37386-.7075-1.40176-.6993m4.76488 2.09206l-2.29817.01852s.33232-1.0549 1.40996-1.06389c1.07606-.00873.88821 1.0451.88821 1.0451m-.82418-2.07433c-1.27158.00953-2.65536 1.515-2.64001 3.22686.01323 1.7145 1.98914 2.61567 3.60363.97446l.09154-.78316s-.43233.80962-1.63274.81862c-1.19962.009-1.06098-1.26207-1.06098-1.26207l2.95883-.02328s.3339-1.007.23125-1.61846c-.1016-.61118-.27967-1.34302-1.55152-1.33323m5.30728.07937c-1.36684.01165-1.96691 1.53512-1.96691 1.53512l.2569-1.32345-1.05092.0082-.86757 4.72917 1.05252-.0082.59002-2.79454s.2823-1.0062 1.19115-1.01256c.90435-.00767.6403.89959.59531 1.19327-.04577.29449-.5416 2.57308-.5416 2.57308l1.1012-.00926.6813-3.52743s.32967-1.37371-1.0414-1.3634m4.70509 2.00237c.0111 1.356-.97579 2.07857-1.45336 2.08333-.4752.00265-.84773-.39635-.85355-1.04087-.00423-.64003.44424-1.92828 1.43643-1.93675.98795-.00794.87048.8943.87048.8943zm.6342-2.96069l-.44027 2.13175s-.06508-1.19062-1.22131-1.18295c-1.15623.00952-2.35426 1.54067-2.34077 3.193.0135 1.64967 1.67428 2.86728 3.06996.6731l-.24791 1.02975 1.04351-.00767 1.20121-5.84544zm2.49846.90938h.08546c.12171 0 .19844-.0053.22754-.01456.0291-.00926.05292-.02487.06959-.0492a.12382.12382 0 00.02593-.07965.1217.1217 0 00-.02514-.07673.14182.14182 0 00-.0709-.0492c-.0315-.00927-.1061-.01403-.22702-.01403h-.08546v.2831zm-.21166.59293V2.40064h.21166c.19844 0 .30956 0 .33417.00158.06932.00635.12409.02038.16351.0418.03784.0217.07091.05451.09763.10002.02567.04392.03863.09366.03863.1487 0 .07514-.02434.13943-.07329.19314-.04947.05239-.118.08626-.20637.0987.03043.01137.05556.0246.07223.03915a.4498.4498 0 01.07117.0799c.00794.01032.0336.05292.07753.12621l.12197.2106h-.26353l-.08651-.16933c-.05768-.1135-.10716-.1852-.14526-.2151-.0389-.03016-.08731-.04419-.14684-.04419h-.05504v.42863zm.44529-1.31551a.80962.80962 0 00-.38973.10186c-.12436.06747-.22278.16405-.29422.29052-.07064.127-.10716.25929-.10716.3982 0 .13758.0344.26802.10478.3937.06932.12461.16801.22224.2929.29183a.78793.78793 0 00.78792 0 .74692.74692 0 00.2929-.29184c.07038-.12567.10583-.25611.10583-.3937 0-.1389-.03625-.27146-.10795-.3982a.73766.73766 0 00-.29448-.2905.81677.81677 0 00-.3908-.10187zm0-.1958c.16827 0 .33073.04313.48577.12833a.9091.9091 0 01.36619.363.99748.99748 0 01.13282.49399c0 .17171-.04366.33496-.13044.49a.9308.9308 0 01-.3638.3638.99721.99721 0 01-.49054.13045.99272.99272 0 01-.49133-.13044.92895.92895 0 01-.3638-.3638.97816.97816 0 01-.1307-.49001c0-.17225.04418-.33655.13228-.49398a.91414.91414 0 01.36645-.363c.1561-.0852.3175-.12807.48683-.12807zm-41.98461.67178a4.16586 4.16586 0 00-.07885-.18467C9.27947.07045 6.17405-.70028 3.41683.69592 1.83594 1.4963.71332 2.83376.2442 4.2715h4.04865L3.4917 8.2601h2.07248l.80063-3.9886h1.35863l.41407-1.96135-5.65097-.0053C3.83117.78298 5.82745.035 7.4803.58402c.9959.3302 1.68698 1.07156 2.01321 2.01691z"/><path d="M8.61457 3.28805l-.41804 1.96744h1.3208a5.74543 5.74543 0 01-.36248.94906C7.9838 8.61279 5.33559 10.00079 3.23929 9.30494 1.51474 8.73344.70273 6.92845 1.12104 4.9655H.06985c-.14922.8546-.0635 1.71979.29713 2.50719 1.07315 2.34553 4.1791 3.11573 6.93631 1.72032 2.4257-1.22767 3.77376-3.72533 3.33349-5.90497z"/></g></svg>