<svg xmlns="http://www.w3.org/2000/svg" height="80" width="150" viewBox="-20.284815 -5.98165 175.80173 35.8899"><path d="M19.5851 23.5646h-14.22s-.824-.992 1.476-3.294c2.202-2.201 5.167-3.555 6.772-4.125 1.909-.676 5.975-1.669 7.973.124 1.799 1.615.507 4.076-.093 5.047-.986 1.601-1.908 2.248-1.908 2.248z" fill="#ef3b40"/><path d="M17.3371 12.7196c4.728.232 7.23 4.173 5.816 6.937-1.353 2.646-2.892 3.908-2.892 3.908h5.847c1.109 0 1.569-.909 1.109-1.647L14.5781.6646c-.555-.923-1.607-.866-2.182.055l-7.191 12.144s6.906-5.356 12.502-4.443c3.669.601-.37 4.299-.37 4.299z" fill="#ef3b40"/><path d="M17.1291 12.7036s1.927-2.263.793-2.897c-.85-.476-3.354-.079-6.834 1.724-3.747 1.941-12.709 8.661-10.833 12.065 0 0 .049-2.014 2.662-4.379 3.044-2.758 5.859-5.055 11.835-6.271.833-.17 1.642-.26 2.377-.242z" fill="#ef3b40"/><path d="M40.1981 11.3346c.68.224 1.021.686 1.021 1.388 0 .634-.258 1.075-.772 1.323-.516.249-1.187.373-2.009.373h-4.622v-3.319h4.136c.91 0 1.658.078 2.246.235zm.203 5.83c.811.293 1.214.832 1.214 1.613 0 .928-.418 1.554-1.253 1.881-.458.176-1.102.265-1.924.265h-4.622v-4.013h4.685c.817.006 1.45.091 1.9.254zm-10.338-8.679v15.053h8.526c.962 0 1.854-.068 2.675-.204.822-.138 1.534-.388 2.139-.757.537-.318.983-.714 1.341-1.185.562-.707.842-1.507.842-2.399 0-.864-.246-1.601-.734-2.206-.489-.605-1.216-1.047-2.177-1.326.63-.26 1.108-.545 1.43-.858.578-.558.868-1.298.868-2.216 0-.892-.29-1.656-.868-2.298-.962-1.042-2.596-1.576-4.901-1.603h-9.141zm17.314 15.053V8.4856h3.907v15.053zm22.79-4.646h3.753c.118.686.353 1.201.703 1.54.637.62 1.729.931 3.278.931.93 0 1.682-.083 2.26-.246 1.098-.313 1.648-.895 1.648-1.746 0-.496-.272-.881-.818-1.156-.543-.264-1.4-.498-2.566-.701l-1.991-.357c-1.957-.355-3.31-.74-4.059-1.154-1.269-.696-1.902-1.782-1.902-3.259 0-1.348.612-2.467 1.838-3.359 1.227-.892 3.025-1.337 5.399-1.337 1.983 0 3.674.421 5.075 1.26 1.399.841 2.133 2.062 2.203 3.662h-3.779c-.068-.905-.562-1.548-1.481-1.931-.614-.251-1.374-.38-2.286-.38-1.011 0-1.821.165-2.424.492-.604.328-.907.783-.907 1.368 0 .539.299.939.894 1.206.385.177 1.201.385 2.452.622l3.241.623c1.423.273 2.494.637 3.217 1.093 1.124.709 1.685 1.732 1.685 3.073 0 1.375-.657 2.519-1.972 3.427-1.313.908-3.173 1.363-5.57 1.363-2.451 0-4.379-.447-5.782-1.344-1.405-.895-2.109-2.125-2.109-3.69zm15.832-7.742v-2.665h15.244v2.665h-5.631v12.388h-3.957v-12.388zm24.489 6.699h-4.775l2.425-5.922zm-7.137 5.689l1.301-3.095h6.934l1.213 3.095h4.262l-6.661-15.053h-4.445l-6.713 15.053zm26.508-12.174c.756.313 1.137.926 1.137 1.839 0 .844-.395 1.409-1.177 1.695-.441.162-1.105.245-1.991.245h-4.455v-4.044h4.571c.85 0 1.489.088 1.915.265zm-10.328-2.879v15.053h3.842v-5.903h3.847l3.473 5.903h4.539l-3.853-6.388c1.271-.046 2.471-1.382 2.922-2.074.451-.691.636-1.588.636-2.3 0-.594-.118-1.121-.354-1.584-.238-.461-.563-.885-.97-1.266-.497-.463-1.097-.813-1.808-1.052-.71-.238-1.725-.367-3.045-.388h-9.229zm-58.574-.444c-4.356 0-7.892 3.534-7.892 7.893s3.535 7.891 7.892 7.891c4.359 0 7.893-3.532 7.893-7.891s-3.534-7.893-7.893-7.893zm1.788 8.441c-.482.054-.946.369-1.104 1.104l-.684 6.238-.787-6.184c0-.632-.369-.948-1.106-1.104l-5.896-.684 5.896-.747c.633-.145 1.106-.555 1.106-1.092l.735-5.845.684 5.898c0 .459.419.894 1.104 1.039l6.156.829z"/></svg>