<?xml version="1.0" encoding="UTF-8"?>
<!DOCTYPE svg PUBLIC "-//W3C//DTD SVG 1.1//EN" "http://www.w3.org/Graphics/SVG/1.1/DTD/svg11.dtd">
<!-- Creator: CorelDRAW 2019 (64-Bit) -->
<svg xmlns="http://www.w3.org/2000/svg" xml:space="preserve" width="150" height="80" version="1.1" style="shape-rendering:geometricPrecision; text-rendering:geometricPrecision; image-rendering:optimizeQuality; fill-rule:evenodd; clip-rule:evenodd"
viewBox="0 0 1354.54 1079.46"
 xmlns:xlink="http://www.w3.org/1999/xlink"
 xmlns:xodm="http://www.corel.com/coreldraw/odm/2003">
 <defs>
  <style type="text/css">
   <![CDATA[
    .fil0 {fill:#332C2B}
   ]]>
  </style>
 </defs>
 <g id="Layer_x0020_1">
  <metadata id="CorelCorpID_0Corel-Layer"/>
  <path class="fil0" d="M660.34 106.34l0 505.24 -75.49 76.33 -64.33 162.39 0 -399.91 -72.91 -115.01 0 126.09 40.32 41.15 -0.01 120.02 -136.38 -135.98 0 -486.66 81.49 199.85 143.25 144.1 84.06 -237.61zm33.87 0l0 505.24 75.48 76.33 64.33 162.39 0.01 -399.91 72.91 -115.01 0 126.09 -40.32 41.15 0.01 120.02 136.37 -135.98 0 -486.66 -81.48 199.85 -143.25 144.1 -84.06 -237.61z"/>
  <path class="fil0" d="M1172.91 1043.91l46.45 -23.1 0 -84.68 48.11 0c1.62,0 3,0.94 3.61,2.44 0.6,1.5 0.25,3.14 -0.91,4.26l-44.44 42.71 128.82 93.92 -70.23 -86.43 53.24 -56.22 -30.31 -37.45 -134.34 0 0 144.55zm-123.67 -107.78l53.86 0 0 66.5 -53.86 0.01 0 -66.51zm-35.21 103.69l124.67 0 11.12 -20.45 0 -100.31 -11.32 -19.7 -124.34 0 -21.78 36.78 10.1 -0.01 0 83.59 11.55 20.1zm-76.87 -18.64l0 -85.05 33.34 0 20 -36.77 -130.5 0 -20 36.78 50.59 -0.01 0 108.21 46.57 -23.16zm-202.56 -85.05l49.98 0 0 16.53 -49.98 0 0 -16.53zm-55.91 0.01l9.49 -0.01 0 107.48 46.42 -23.08 0 -30.26 49.98 0 0 53.55 46.59 -23.16 0.01 -99.45 -12.37 -21.85 -119.3 0 -20.82 36.78zm-117.89 -0.01l54.04 0 0 66.5 -54.04 0.01 0 -66.51zm-46.55 103.7l136.19 -0.01 11.24 -19.62 0 -100.77 -11.53 -20.07 -124.55 0 -20.59 36.77 9.24 0 0 103.7zm-150 -0.01l101.08 0 21.23 -37.18 -75.63 -0.01 0 -12.36 54.31 0 21.47 -37.61 -75.78 0 0 -16.53 67.45 0 20.99 -36.77 -135.12 0 0 140.46zm-179.01 4.3l46.66 -23.2 0 -84.78 47.56 -0.01c1.62,0 3,0.94 3.61,2.44 0.61,1.5 0.26,3.13 -0.91,4.26l-44.01 42.38 127.84 92.76 -69.59 -84.16 54.74 -57.68 -30.94 -36.77 -134.96 0 0 144.76zm-130.01 -107.99l46.84 0c1.73,0 3.19,1.07 3.71,2.71 0.53,1.64 -0.05,3.36 -1.45,4.35l-49.1 34.99 0 -42.05zm88.26 -36.78l-123.24 0.01 -20.25 36.77 8.74 0 0 107.35 46.49 -23.11 0 -35.98 33.16 15.21 86.66 -63.47 -31.56 -36.78z"/>
 </g>
</svg>
