<svg xmlns="http://www.w3.org/2000/svg" height="80" width="150" viewBox="-45 -12.96045 390 77.7627"><g fill="#85c226" fill-rule="evenodd"><path d="M252.0465 13.0748v9.2249h-6.3412c-3.0717 0-5.6227.2218-7.6818.6751-2.035.4484-3.877 1.1766-5.4973 2.2037-3.0813 1.9289-4.6437 4.3062-4.6437 7.1417 0 2.657 1.4852 4.9524 4.4509 6.8716 1.7456 1.1236 3.6841 1.9048 5.8203 2.3677 2.1266.4581 4.8897.6896 8.2894.6896h5.6034v9.2296h-8.4533c-7.6046 0-13.8494-.8776-18.7005-2.6666-6.1338-2.2617-10.4352-5.5359-12.9524-9.7987-1.2778-2.1507-1.9288-4.3593-1.9288-6.6064 0-2.956 1.0705-5.8108 3.2067-8.5883 1.6444-2.117 3.7661-3.9832 6.4328-5.5697 3.8819-2.3098 8.516-3.8047 13.8734-4.528 3.1586-.434 6.727-.6462 10.7101-.6462zM269.5978 0v22.182l.1254.4485c5.7528.7378 11.9542-.6799 14.8282-5.859 1.49-2.17 1.842-3.6986 1.8565-3.6986h12.7017c2.2375 6.5871-3.4334 12.3689-9.1188 14.645 9.1477 6.0325 10.3291 12.6052 9.9482 23.7589h-15.0906c.2315-8.9355-1.1766-19.3466-15.2719-18.4931l.0193 18.4931h-15.8312V0h15.8312zM63.4937 51.8408h28.9765l2.3099-.067c9.6202-.2847 16.0771-7.8456 16.1543-16.1061.0822-9.2007-8.3617-14.8812-18.064-14.8812H75.6747c-2.6281 0-4.393-2.2327-4.5425-4.4654-.164-2.5654 1.9144-5.2803 4.9379-5.2803h32.1591V.08H75.5154C63.0164.08 57.683 7.0481 57.442 15.4387c-.2365 8.1881 6.452 16.2363 16.082 16.2363h17.8276l1.9964.1396c2.3821.159 3.9156 2.0302 4.0554 4.0555.1783 2.575-2.387 4.9427-5.4105 4.9427l-35.5491.1397.241-40.9404-21.854-.01c-6.8476-.1014-10.416 4.0603-12.967 9.8614L0 51.7023l1.2441.072 16.1833-.1447a34672.8414 34672.8414 0 0017.138-35.5588c2.1797-3.7806 3.4093-4.34 7.3635-3.9108l-.008 39.6818h21.5745zm61.6314-31.8669h11.636c2.7679 0 4.4219-.5256 5.2513-1.3791.68-.6896 1.0078-1.6444 1.0078-2.5654 0-1.249-.4677-2.1748-1.384-2.7728-.9306-.6028-2.493-1.0416-4.4894-1.0416l-12.0217.01v7.7493zM137.5326.0004c4.2194.13 7.5322-.2507 10.2616.5594 5.8348 1.6251 8.979 4.2098 10.5075 7.3731.8632 1.7457 1.1525 3.5974 1.1525 5.5407 0 3.5588-1.056 6.6016-3.4334 8.8777-1.0946 1.0415-2.1844 1.8517-3.4912 2.4159-1.3116.5593-3.3466 1.2634-5.6902 1.7118 9.5045 5.2996 11.9976 11.1779 11.9976 24.8729h-16.4919c-.027-13.9072-5.5455-19.3563-17.22-19.2213v19.3467h-12.3593V.0004zm46.3132 24.1761c4.803 0 8.7234 3.6359 8.7234 8.1012 0 4.4606-3.9205 8.0965-8.7234 8.0965-4.7932 0-8.7185-3.6359-8.7185-8.0965 0-4.4653 3.9253-8.1012 8.7185-8.1012"/><path d="M183.8458 21.4597c6.4135 0 11.6456 4.8607 11.6456 10.8209 0 5.9506-5.232 10.8162-11.6456 10.8162-6.4087 0-11.636-4.8656-11.636-10.8162 0-5.9602 5.2273-10.8209 11.636-10.8209m0-8.3858c13.9554 0 25.3406 8.6269 25.3406 19.2067 0 10.5703-11.3852 19.1972-25.3406 19.1972s-25.3357-8.6269-25.3357-19.1972c0-10.5798 11.3803-19.2067 25.3357-19.2067M292.9999 1.5985c2.2953 0 4.1615 1.871 4.1615 4.1568 0 2.2905-1.8662 4.1567-4.1615 4.1567-2.2858 0-4.152-1.8662-4.152-4.1567 0-2.2858 1.8662-4.1568 4.152-4.1568m0 .8005c1.8565 0 3.3658 1.5094 3.3658 3.3563 0 1.8565-1.5093 3.361-3.3658 3.361-1.847 0-3.3611-1.5045-3.3611-3.361 0-1.8469 1.5142-3.3563 3.361-3.3563"/><path d="M292.1685 5.4317h.6365c.41 0 .6703-.015.7716-.053.106-.039.1782-.092.2411-.1833.0529-.082.0822-.1878.0822-.3136 0-.1493-.0347-.2554-.1157-.3522-.0721-.087-.1833-.1397-.3233-.1686-.0721 0-.2747-.01-.622-.01h-.6704v1.0802zm-.8583 2.4496V3.633h1.8083c.4484 0 .7764.039.9885.1111.2026.082.3665.2168.4919.4099.1254.1975.1832.4243.1832.6751 0 .3132-.0918.5738-.2797.786-.1832.2122-.4629.3376-.839.3906.1832.1111.3375.2315.4581.3568.1204.1351.2843.3615.487.6944l.5208.8246h-1.027l-.6173-.9258c-.2168-.3279-.3762-.5353-.4533-.6221-.0822-.087-.169-.1447-.2554-.1736-.0918-.027-.2365-.053-.4388-.053h-.1686v1.7746h-.8584z"/></g></svg>