<svg xmlns="http://www.w3.org/2000/svg" height="80" width="150" viewBox="-13.19334 -11.89975 114.34228 71.3985"><path d="M13.874 32.985c0 .006-.0008.0117-.0008.018 1.6588.343 3.5712 2.2313 4.4817 4.9107v-.0148c.696 1.2911 2.4885.8435 2.4885.8435-1.1948-1.0432-1.5924-2.4342-1.5924-2.4342s.6194 1.391 3.0427 1.391c-.7285-.8936-1.6426-1.6725-2.1911-3.4096-.3955-1.2576-.5048-3.0741-.4763-3.5655-1.259 1.536-3.618 2.7188-5.7524 2.261" fill="#eee800"/><path d="M18.327 30.3294c2.402-.1482 5.402-2.051 7.75-4.4369-2.3117-.7955-4.9836-1.084-7.5709.151-2.1914 1.0474-3.567 3.0039-4.4157 4.8316a20.6212 20.6212 0 00-.2166 2.11c2.1343.458 4.4937-.725 5.7527-2.261.0032-.0497.0064-.0896.0124-.1114-.0007.0014-1.0608.0995-2.0564-.2964.17.0029.4248.016.7444.013" fill="#42a732"/><path d="M13.8733 33.003c-.0053.0994-.0124.1979-.0152.2991-.0113.283-.0201.5704-.0201.8657 0 .0498.0046.0981.0046.1482v.0444c.008.5775.0469 1.141.1136 1.6916a16.957 16.957 0 00.2642 1.5914c.399 1.8503 1.0393 3.4114 1.5868 4.4005-.0222-.6194.3425-1.887.4586-2.11-.2057-.3227-.4131-1.7225-.466-2.3138-.0014-.0279-.0043-.0543-.006-.0794-.0328-.3665-.0512-.6131.025-.3376.0477.1725.1027.3348.1658.4921.863 2.158 3.0664 2.9359 3.0664 2.9359-.2353-.388-.3902-.8262-.4936-1.2358-.1859-.7394-.2017-1.3864-.2024-1.4817-.9106-2.6793-2.823-4.5674-4.4817-4.9106M27.138 46.2693s.0878-.1644.1671-.274c.0882-.1235.2371-.2.2371-.2s-.2254-.0763-.4152-.0657c-.188.0099-.357.1097-.357.1097s-.1824-.2067-.3373-.3097c-.2543-.1655-.6858-.2784-.6858-.2784s.2724.2875.3965.4869c.126.201.1785.4078.1785.4078s-.096.1675-.3086.2967c-.2142.129-.4315.1996-.4315.1996s.3997.1454.5673.1658c.14.0187.4275-.031.4275-.031s.0999.2773.1934.4343c.1316.2303.375.3877.375.3877s-.0152-.2325-.007-.3595c.007-.1468.0454-.2935.0454-.2935s.1926.0864.4586.066c.285-.022.5624-.248.5624-.248s-.3934-.1204-.5444-.1835c-.3309-.132-.522-.3112-.522-.3112m-2.8812-.7658c.369.1291.7775.3962.7775.3962s-.2103-.5035-.4921-.8114c-.3052-.333-.6396-.4505-.6396-.4505s.1415-.1454.1827-.5676c.0343-.3377-.0183-.9903-.0183-.9903s-.186.3126-.4114.5458c-.1277.1287-.3224.2374-.3224.2374s-.2685-.3595-.5471-.5606c-.3779-.277-.821-.1979-.821-.1979s.3059.242.4826.6752c.1101.2695.1433.5648.1433.5648s-.4057.544-.527.8551c-.1084.276-.1592.4915-.1292.8146-.0268-.279.672-.5168.8872-.509.1292.3432.3066.7302.5737 1.0093.6247.6498 1.3592.5094 1.3592.5094s-.6082-.4978-.7821-.8135c-.3203-.5737-.2755-.81-.2755-.81s.3372.0254.5595.103" fill="#ef7a00"/><path d="M19.6241 43.4127s.3426-.4756.6139-1.5346c-.5712.562-1.6648.5235-1.6648.5235s-.3951-.2374-.8322-.66c-.2928-.2862-.6544-.7278-.6544-.7278s-.0603.5958.0014 1.04c.0618.443.1863.9186.1863.9186s-.102.0998-.3733.176c-.2857.077-.6406.0501-.6406.0501s.2865.4858.7024.6587c.1968.084.5228.075.5228.075s-.0483.4795.1894.9138c.3415.6297 1.0605.6925 1.0683.6925-.3518-.0293-.4375-.9066-.3267-1.1218-.0991.1947 1.0026.2695 1.0724.2723 1.0418.0395 1.782-.4914 1.782-.4914s-.832-.132-1.135-.3154c-.2-.122-.5119-.4695-.5119-.4695m1.8516-.8351s.8347-.0187 1.2305-.2798c.4375-.2875.531-.5884.531-.5884s.4381.1859.8544.538c.3722.3143.7838.9659.7838.9659s-.0289-.8217-.4014-1.5322c-.2907-.5513-.683-.9316-.683-.9316s.1094-.0865.3662-.1493c.2596-.0635.5479.0156.5479.0156s-.309-.3814-.7829-.4989c-.2197-.0536-.4568-.0755-.6716-.0755-.1976-.2511-.4735-.4378-.7324-.6445-.0953-.0762-1.1268-.5662-1.126-.5778-.0082.139.3971 1.288.309 1.3102-.6393.158-1.056.1287-1.7523.0497.2604.314.5239.4798 1.0474.7588.4413.2375.817.2727.817.2727s.0463.27-.0638.7363c-.0483.1968-.2738.6308-.2738.6308" fill="#ef7a00"/><path d="M18.2508 20.6545c-.4854-.0074-1.7057-.0074-3.308.1454 1.193.6177 4.409 2.2108 6.8132 1.0255-.4953.653-1.7607 1.2442-3.9173.477 0 0-.001 0-.0024-.0015-.0625.0717-.5825.7218-.6185.7705 1.1519.8301 2.7277 1.0312 4.1692.3898 2.1688-.9652 3.2064-3.467 2.3262-5.587-.0681-.1643-.1489-.3185-.2357-.4695a3.7224 3.7224 0 00-.2885-.4328 6.772 6.772 0 01.2494-.053c1.2343-.2271 2.4236-.0102 3.4561.518a5.475 5.475 0 011.99-3.1165c.6816-.5281 1.4482-.8714 2.2388-1.0372-.5874-.091-1.2266-.0984-1.9036-.012-2.9393.3743-5.1678 1.7138-6.6326 3.0008.5638-.8287 1.3557-1.5216 1.3557-1.5216C19.9776 9.5406 17.739 3.2693 16.9487.5977c-.234-.7913-.5761-.8026-.6982 0a35.7715 35.7715 0 00-.3365 3.1616c.296.7133.7673 1.6492 1.241 2.4356-.5277-.672-.9443-1.2044-1.2788-1.6299-.0324.8333-.0338 1.7251.0138 2.6455.5055.9536 1.3843 2.3023 2.2373 3.4026 0 0-.993-.9995-2.14-2.0984.133 1.2852.3708 2.5972.7638 3.8545.321.2596 1.7449 1.0813 1.7449 1.0813C10.5359 10.321 4.1605 6.578.9442 4.3682c-.914-.628-1.1804-.2466-.7292.5122.2318.3916.5193.8657.8583 1.404 2.8095 3.8517 5.413 4.6966 5.413 4.6966s-1.2883-.4022-2.8328-.9024c3.742 4.7876 8.516 6.0554 8.516 6.0554s-2.276-.465-4.0343-.6752c5.0243 4.669 9.1341 5.1442 10.1156 5.1957" fill="#c70027"/><path d="M26.8947 17.437c-.0462.201-.078.406-.1037.6117a5.8123 5.8123 0 00.8029-.0896 2.4476 2.4476 0 00.1125-.0233c1.3811-.2804 2.6638-1.0622 3.5433-2.3004a5.7173 5.7173 0 00.9275-2.0839c-.228-.1009-.7955-.2462-1.0538-.2681-.7905.1654-1.5575.5087-2.239 1.0372a5.4715 5.4715 0 00-1.9897 3.1164" fill="#8f1e22"/><path d="M33.254 17.0732c-.2085.182-.6047.0705-.8848-.2512-.279-.3196-.339-.726-.1305-.908.2081-.182.6036-.0692.8851.2525.279.3196.3394.726.1302.9067m6.9398 8.4155c-.2674-.3666-2.3466-3.2173-3.2074-4.2926-.8611-1.0785-1.19-1.6376-1.4986-3.1898-.3087-1.5512-1.0439-2.9274-2.2747-3.8619a4.5439 4.5439 0 00-1.0361-.5927 5.715 5.715 0 01-.9271 2.0835c-.8799 1.2387-2.1622 2.02-3.5433 2.3005.8089.5944 1.477 1.3914 1.9357 2.305 1.8721-.9214 3.713-1.1017 5.6038.2216 1.8899 1.3236 4.1438 4.9505 4.5092 5.4363.3546.471.7938.0776.4385-.41" fill="#9e4394"/><path d="M28.5674 22.7793c-.1576.242-.238.3693-.2698.4194a15.529 15.529 0 00.2698-.4194" fill="#00a0e9"/><path d="M27.6843 21.708c-.6163.3726-.957.6396-.957.6396s.232-.3097.8614-.8011c-.2014-.3503-.4173-.811-.5676-1.2016-.2413-.7468-.3147-1.5318-.2304-2.2962.0261-.2057.0579-.4107.104-.6117-1.0328-.5282-2.222-.7455-3.4564-.518a6.3763 6.3763 0 00-.2494.053 3.72 3.72 0 01.2889.4325c.0864.151.1672.3055.2353.4695.8805 2.1202-.1574 4.6218-2.3262 5.5873-1.4415.6414-3.0173.4403-4.1688-.3901-.924 1.2513-2.5174 3.8632-3.1277 7.8041.8491-1.828 2.2242-3.7842 4.4157-4.8316 2.5873-1.2355 5.2592-.9465 7.571-.151.8434-.8555 1.6005-1.7727 2.219-2.6924.0645-.0999.287-.4463.2892-.4491-.3588-.3344-.688-.707-.901-1.0432m.9011 1.0432c-.0053.0088-.0113.0176-.018.0282.0067-.0106.0127-.0176.018-.0282" fill="#00a0e9"/><path d="M28.2975 23.1987s-.0014 0-.0014.0014c-.0226.0307-.0264.0381.0014-.0014" fill="#00a0e9"/><path d="M28.5854 22.7512c-.0022.0028-.2248.3493-.2893.449 0-.0013.0014-.0013.0014-.0013.0317-.0501.1122-.1778.2699-.4195.0067-.0106.0127-.0194.018-.0282" fill="#00a0e9"/><path d="M28.5854 22.7512c.346-.5606.9334-1.7004 1.0093-2.0352-.78.3447-1.4291.6996-1.9103.992.2127.3362.5422.7088.901 1.0432" fill="#475aa7"/><path d="M28.5854 22.7512c-.3588-.3344-.6883-.707-.901-1.0432.2127.3362.5422.7088.901 1.0432m-.8789-4.8154a2.4476 2.4476 0 01-.1125.0233 5.8173 5.8173 0 01-.8033.0896c-.0843.7645-.011 1.5494.2304 2.2962.1503.3906.3662.8513.568 1.2016.4554-.3549 1.1186-.8054 2.0531-1.306-.4582-.9137-1.1268-1.7103-1.9357-2.3047" fill="#475aa7"/><path d="M77.3793 34.6724l2.1904-4.2022.7034.0017c.2124.013.3542.0893.4671.283l2.0595 3.9175zm6.1729-4.7582c-.3969-.719-.618-.8714-1.8397-.8714l-2.8738-.0032-4.7152 8.7771 1.8193.0032.9204-1.7039h6.6703l.957 1.7007h3.465zm-27.8701 4.7582l2.1903-4.2022.702.0017c.2124.013.3564.0893.4686.283l2.0595 3.9175zm4.1624-5.6296l-2.8734-.0032-4.7156 8.7771 1.819.0032.9228-1.7039h6.6682l.9585 1.7007h3.465l-4.4034-7.9025c-.3969-.719-.6166-.8714-1.8411-.8714m-30.6338 5.6296l2.1907-4.2022.7013.0017c.212.013.3553.0893.4689.283l2.0584 3.9175zm4.1631-5.6296l-2.8755-.0032-4.7138 8.7771 1.8175.0032.9222-1.7039h6.6692l.9575 1.7007h3.465l-4.4024-7.9025c-.3961-.719-.6177-.8714-1.8397-.8714m42.5757.0879l-11.8283-.0046.0021 1.5275h4.5833l.0064 7.1339h2.7523l.0036-6.415c-.0015-.2786.0303-.4709.093-.5587.0572-.0826.1483-.1426.428-.1468a.04.04 0 00.0124.0014H75.96zm-29.6803 7.408H42.858l.008-6.4323 3.3896.0117c.0106-.0014.0187-.0014.0282-.0014 1.849.0102 2.9753.8332 2.9856 3.2145-.0075 2.07-1.1423 3.187-3 3.2074m-.0262-7.7526l-5.8473.0014.0032 9.0953h.0561l5.801-.0056h.0244c1.9594 0 3.4015-.2583 4.3614-.9613.9592-.7045 1.4182-1.8504 1.416-3.5846.0096-3.4989-1.8129-4.5452-5.8148-4.5452" fill="#04338e"/></svg>