<svg xmlns="http://www.w3.org/2000/svg" viewBox="0 0 213.82 38.84"><defs><style>.cls-1{fill:#001647;}.cls-2{fill:#00007a;}.cls-3{fill:#22f;}.cls-4{fill:#000daa;}</style></defs><g id="Layer_2" data-name="Layer 2"><g id="Layer_1-2" data-name="Layer 1"><path class="cls-1" d="M44.8,14.74l.14,0Z"/><path class="cls-1" d="M47.31,16.26l.13.15Z"/><path class="cls-1" d="M46.74,15.68h0l.09.08A.23.23,0,0,1,46.74,15.68Z"/><path class="cls-1" d="M45.76,15.08l.18.09Z"/><polygon class="cls-1" points="42.99 29.21 47.04 23.09 42.99 29.21 42.99 29.21"/><path class="cls-1" d="M43.84,14.61l.22,0Z"/><path class="cls-2" d="M25.23,11.92a5.12,5.12,0,0,1,4.26-2.29H47.31c4.21,0,8.62-5.38,3.79-9.63H24.16a4.81,4.81,0,0,0-4,2.16L.8,31.36a4.84,4.84,0,0,0,.5,6,5.11,5.11,0,0,0,3.75,1.52H34s-4.17-1.5-4.7-3.76a5,5,0,0,1,.79-3.86l1.33-2H21.59a4.2,4.2,0,0,1-3.5-6.51Z"/><polygon class="cls-1" points="34.73 24.23 33.56 26.01 34.73 24.23 34.73 24.23"/><path class="cls-3" d="M44.06,14.63a4.9,4.9,0,0,1,.74.11A4.55,4.55,0,0,0,44.06,14.63Z"/><path class="cls-3" d="M45.94,15.17a4.68,4.68,0,0,1,.78.5A5.19,5.19,0,0,0,45.94,15.17Z"/><path class="cls-3" d="M44.94,14.77a5.1,5.1,0,0,1,.82.31A4.47,4.47,0,0,0,44.94,14.77Z"/><path class="cls-3" d="M43.84,14.61H29.09a4.82,4.82,0,0,0,0,9.63h5.64l5-7.47A4.83,4.83,0,0,1,43.84,14.61Z"/><path class="cls-3" d="M47.6,22.25l-.56.84.67-1a4.82,4.82,0,0,0,.23-4.94,4.49,4.49,0,0,0-.5-.73A5,5,0,0,1,47.6,22.25Z"/><path class="cls-3" d="M46.81,15.75a4.81,4.81,0,0,1,.5.51A4.81,4.81,0,0,0,46.81,15.75Z"/><polygon class="cls-3" points="33.56 26.01 31.44 29.21 31.44 29.21 33.56 26.01"/><path class="cls-4" d="M37.11,9.63H52.5a5,5,0,0,0,5-4.34A4.82,4.82,0,0,0,52.71,0H46.07L43.22,4.3a15.15,15.15,0,0,1-6.08,5.31Z"/><path class="cls-4" d="M29.78,36.3A4.82,4.82,0,0,0,34,38.84h0a4.81,4.81,0,0,0,4-2.16l5-7.47h0l4-6.12.56-.84a5,5,0,0,0-.16-5.84l-.13-.15a4.81,4.81,0,0,0-.5-.51l-.09-.08a4.68,4.68,0,0,0-.78-.5l-.18-.09a5.1,5.1,0,0,0-.82-.31l-.14,0a4.9,4.9,0,0,0-.74-.11l-.22,0a4.83,4.83,0,0,0-4.16,2.15l-5,7.47h0L33.56,26l-2.12,3.2h0L30,31.36A4.82,4.82,0,0,0,29.78,36.3Z"/><path class="cls-4" d="M50.83,35.07,70.32,2.54A5,5,0,0,1,74.6.12H99.14L94.48,8H76.14l-4.47,7.48h16l-4.45,7.48h-16L62.38,31h18.7l-4.66,7.85H53A2.49,2.49,0,0,1,50.83,35.07Z"/><path class="cls-4" d="M84.63,34.65,115.24,1.71A5,5,0,0,1,118.89.12h10l-9.61,38.72H109.7l1.88-7.07H96.73l-6.44,7.07H86.46A2.49,2.49,0,0,1,84.63,34.65ZM103.82,24h9.83l4-15.22Z"/><path class="cls-4" d="M126.13,35.09l19-32.5A5,5,0,0,1,149.4.12h13.52a12.48,12.48,0,0,1,6.63,1.47,5,5,0,0,1,2.5,4.18q.16,2.88-2.27,6.93a23.24,23.24,0,0,1-4.66,5.55,25,25,0,0,1-8.43,4.84l-1,15.75H145.57l1.19-14.49H141.5l-8.43,14.49h-4.79A2.49,2.49,0,0,1,126.13,35.09ZM158.29,7.92h-7.23l-5.33,9.15H153a8.9,8.9,0,0,0,4.51-1.25,9.14,9.14,0,0,0,3.32-3.3c.81-1.39,1-2.51.53-3.35S159.86,7.92,158.29,7.92Z"/><path class="cls-3" d="M163.33,35.1l1.5-2.59L197.43,8h-18.5L182,2.62a5,5,0,0,1,4.32-2.5h27.46l-3.6,6.33L177.61,30.89h18.7l-4.53,8H165.49A2.5,2.5,0,0,1,163.33,35.1Z"/></g></g></svg>